<?xml version="1.0" encoding="utf-8"?>
<!-- Generator: Adobe Illustrator 18.0.0, SVG Export Plug-In . SVG Version: 6.00 Build 0)  -->
<!DOCTYPE svg PUBLIC "-//W3C//DTD SVG 1.0//EN" "http://www.w3.org/TR/2001/REC-SVG-20010904/DTD/svg10.dtd">
<svg version="1.0" id="Layer_1" xmlns="http://www.w3.org/2000/svg" xmlns:xlink="http://www.w3.org/1999/xlink" x="0px" y="0px"
	 viewBox="0 0 80 40" enable-background="new 0 0 80 40" xml:space="preserve">
<polygon fill="#FFFFCA" points="40,10 30,0 20,10 10,0 0,10 10,20 0,30 10,40 20,30 30,40 40,30 30,20 "/>
<path fill="#FFFFCA" d="M60,10c5.5,0,10,4.5,10,10s-4.5,10-10,10s-10-4.5-10-10S54.5,10,60,10 M60,0C49,0,40,9,40,20s9,20,20,20
	s20-9,20-20S71,0,60,0L60,0z"/>
</svg>
