<?xml version="1.0" encoding="utf-8"?>
<!-- Generator: Adobe Illustrator 18.0.0, SVG Export Plug-In . SVG Version: 6.00 Build 0)  -->
<!DOCTYPE svg PUBLIC "-//W3C//DTD SVG 1.0//EN" "http://www.w3.org/TR/2001/REC-SVG-20010904/DTD/svg10.dtd">
<svg version="1.0" id="Layer_1" xmlns="http://www.w3.org/2000/svg" xmlns:xlink="http://www.w3.org/1999/xlink" x="0px" y="0px"
	 viewBox="0 0 320 240" enable-background="new 0 0 320 240" xml:space="preserve">
<g>
	<g>
		<rect x="1" y="81" fill="#FF1472" width="38" height="38"/>
		<rect x="41" y="81" fill="#FF1472" width="38" height="38"/>
		<rect x="81" y="81" fill="#FF1472" width="38" height="38"/>
		<rect x="121" y="81" fill="#FF1472" width="38" height="38"/>
		<rect x="161" y="81" fill="#FF1472" width="38" height="38"/>
		<rect x="201" y="81" fill="#FF1472" width="38" height="38"/>
		<rect x="241" y="81" fill="#FF1472" width="38" height="38"/>
		<rect x="281" y="81" fill="#FF1472" width="38" height="38"/>
		<rect x="1" y="121" fill="#FF1472" width="38" height="38"/>
		<rect x="41" y="121" fill="#FF1472" width="38" height="38"/>
		<rect x="81" y="121" fill="#FF1472" width="38" height="38"/>
		<rect x="201" y="121" fill="#FF1472" width="38" height="38"/>
		<rect x="241" y="121" fill="#FF1472" width="38" height="38"/>
		<rect x="281" y="121" fill="#FF1472" width="38" height="38"/>
		<rect x="1" y="161" fill="#FF1472" width="38" height="38"/>
		<rect x="41" y="161" fill="#FF1472" width="38" height="38"/>
		<rect x="81" y="161" fill="#FF1472" width="38" height="38"/>
		<rect x="201" y="161" fill="#FF1472" width="38" height="38"/>
		<rect x="241" y="161" fill="#FF1472" width="38" height="38"/>
		<rect x="281" y="161" fill="#FF1472" width="38" height="38"/>
		<rect x="1" y="201" fill="#FF1472" width="38" height="38"/>
		<rect x="41" y="201" fill="#FF1472" width="38" height="38"/>
		<rect x="81" y="201" fill="#FF1472" width="38" height="38"/>
		<rect x="121" y="201" fill="#FF1472" width="38" height="38"/>
		<rect x="161" y="201" fill="#FF1472" width="38" height="38"/>
		<rect x="201" y="201" fill="#FF1472" width="38" height="38"/>
		<rect x="241" y="201" fill="#FF1472" width="38" height="38"/>
		<rect x="281" y="201" fill="#FF1472" width="38" height="38"/>
	</g>
	<g>
		<path fill="#DFDFD5" d="M27.1,92.9c-2-2-4.5-2.9-7.1-2.9s-5.1,1-7.1,2.9c-3.9,3.9-3.9,10.2,0,14.1c2,2,4.5,2.9,7.1,2.9
			s5.1-1,7.1-2.9C31,103.2,31,96.8,27.1,92.9z M14.3,94.3L14.3,94.3C14.3,94.3,14.3,94.3,14.3,94.3C14.3,94.3,14.3,94.3,14.3,94.3z
			 M14.3,105.7c-2.9-2.9-3.1-7.4-0.7-10.6l11.2,11.2c-1.4,1.1-3.1,1.7-4.9,1.7C17.9,108,15.9,107.2,14.3,105.7z M25.7,105.7
			L25.7,105.7C25.7,105.7,25.7,105.7,25.7,105.7C25.7,105.7,25.7,105.7,25.7,105.7z M26.3,104.9L15.1,93.7c1.4-1.1,3.1-1.7,4.9-1.7
			c2.1,0,4.1,0.8,5.7,2.3C28.5,97.2,28.8,101.8,26.3,104.9z"/>
		<path fill="#DFDFD5" d="M67.1,92.9c-2-2-4.5-2.9-7.1-2.9s-5.1,1-7.1,2.9c-3.9,3.9-3.9,10.2,0,14.1c2,2,4.5,2.9,7.1,2.9
			s5.1-1,7.1-2.9C71,103.2,71,96.8,67.1,92.9z M54.3,94.3L54.3,94.3C54.3,94.3,54.3,94.3,54.3,94.3C54.3,94.3,54.3,94.3,54.3,94.3z
			 M54.3,105.7c-2.9-2.9-3.1-7.4-0.7-10.6l11.2,11.2c-1.4,1.1-3.1,1.7-4.9,1.7C57.9,108,55.9,107.2,54.3,105.7z M65.7,105.7
			L65.7,105.7C65.7,105.7,65.7,105.7,65.7,105.7C65.7,105.7,65.7,105.7,65.7,105.7z M66.3,104.9L55.1,93.7c1.4-1.1,3.1-1.7,4.9-1.7
			c2.1,0,4.1,0.8,5.7,2.3C68.5,97.2,68.8,101.8,66.3,104.9z"/>
		<path fill="#DFDFD5" d="M107.1,92.9c-2-2-4.5-2.9-7.1-2.9s-5.1,1-7.1,2.9c-3.9,3.9-3.9,10.2,0,14.1c2,2,4.5,2.9,7.1,2.9
			s5.1-1,7.1-2.9C111,103.2,111,96.8,107.1,92.9z M94.3,94.3L94.3,94.3C94.3,94.3,94.3,94.3,94.3,94.3
			C94.3,94.3,94.3,94.3,94.3,94.3z M94.3,105.7c-2.9-2.9-3.1-7.4-0.7-10.6l11.2,11.2c-1.4,1.1-3.1,1.7-4.9,1.7
			C97.9,108,95.9,107.2,94.3,105.7z M105.7,105.7L105.7,105.7C105.7,105.7,105.7,105.7,105.7,105.7
			C105.7,105.7,105.7,105.7,105.7,105.7z M106.3,104.9L95.1,93.7c1.4-1.1,3.1-1.7,4.9-1.7c2.1,0,4.1,0.8,5.7,2.3
			C108.5,97.2,108.8,101.8,106.3,104.9z"/>
		<path fill="#DFDFD5" d="M147.1,92.9c-2-2-4.5-2.9-7.1-2.9s-5.1,1-7.1,2.9c-3.9,3.9-3.9,10.2,0,14.1c2,2,4.5,2.9,7.1,2.9
			s5.1-1,7.1-2.9C151,103.2,151,96.8,147.1,92.9z M134.3,94.3L134.3,94.3C134.3,94.3,134.3,94.3,134.3,94.3
			C134.3,94.3,134.3,94.3,134.3,94.3z M134.3,105.7c-2.9-2.9-3.1-7.4-0.7-10.6l11.2,11.2c-1.4,1.1-3.1,1.7-4.9,1.7
			C137.9,108,135.9,107.2,134.3,105.7z M145.7,105.7L145.7,105.7C145.7,105.7,145.7,105.7,145.7,105.7
			C145.7,105.7,145.7,105.7,145.7,105.7z M146.3,104.9l-11.2-11.2c1.4-1.1,3.1-1.7,4.9-1.7c2.1,0,4.1,0.8,5.7,2.3
			C148.5,97.2,148.8,101.8,146.3,104.9z"/>
		<path fill="#DFDFD5" d="M187.1,92.9c-2-2-4.5-2.9-7.1-2.9s-5.1,1-7.1,2.9c-3.9,3.9-3.9,10.2,0,14.1c2,2,4.5,2.9,7.1,2.9
			s5.1-1,7.1-2.9C191,103.2,191,96.8,187.1,92.9z M174.3,94.3L174.3,94.3C174.3,94.3,174.3,94.3,174.3,94.3
			C174.3,94.3,174.3,94.3,174.3,94.3z M174.3,105.7c-2.9-2.9-3.1-7.4-0.7-10.6l11.2,11.2c-1.4,1.1-3.1,1.7-4.9,1.7
			C177.9,108,175.9,107.2,174.3,105.7z M185.7,105.7L185.7,105.7C185.7,105.7,185.7,105.7,185.7,105.7
			C185.7,105.7,185.7,105.7,185.7,105.7z M186.3,104.9l-11.2-11.2c1.4-1.1,3.1-1.7,4.9-1.7c2.1,0,4.1,0.8,5.7,2.3
			C188.5,97.2,188.8,101.8,186.3,104.9z"/>
		<path fill="#DFDFD5" d="M227.1,92.9c-2-2-4.5-2.9-7.1-2.9s-5.1,1-7.1,2.9c-3.9,3.9-3.9,10.2,0,14.1c2,2,4.5,2.9,7.1,2.9
			s5.1-1,7.1-2.9C231,103.2,231,96.8,227.1,92.9z M214.3,94.3L214.3,94.3C214.3,94.3,214.3,94.3,214.3,94.3
			C214.3,94.3,214.3,94.3,214.3,94.3z M214.3,105.7c-2.9-2.9-3.1-7.4-0.7-10.6l11.2,11.2c-1.4,1.1-3.1,1.7-4.9,1.7
			C217.9,108,215.9,107.2,214.3,105.7z M225.7,105.7L225.7,105.7C225.7,105.7,225.7,105.7,225.7,105.7
			C225.7,105.7,225.7,105.7,225.7,105.7z M226.3,104.9l-11.2-11.2c1.4-1.1,3.1-1.7,4.9-1.7c2.1,0,4.1,0.8,5.7,2.3
			C228.5,97.2,228.8,101.8,226.3,104.9z"/>
		<path fill="#DFDFD5" d="M267.1,92.9c-2-2-4.5-2.9-7.1-2.9s-5.1,1-7.1,2.9c-3.9,3.9-3.9,10.2,0,14.1c2,2,4.5,2.9,7.1,2.9
			s5.1-1,7.1-2.9C271,103.2,271,96.8,267.1,92.9z M254.3,94.3L254.3,94.3C254.3,94.3,254.3,94.3,254.3,94.3
			C254.3,94.3,254.3,94.3,254.3,94.3z M254.3,105.7c-2.9-2.9-3.1-7.4-0.7-10.6l11.2,11.2c-1.4,1.1-3.1,1.7-4.9,1.7
			C257.9,108,255.9,107.2,254.3,105.7z M265.7,105.7L265.7,105.7C265.7,105.7,265.7,105.7,265.7,105.7
			C265.7,105.7,265.7,105.7,265.7,105.7z M266.3,104.9l-11.2-11.2c1.4-1.1,3.1-1.7,4.9-1.7c2.1,0,4.1,0.8,5.7,2.3
			C268.5,97.2,268.8,101.8,266.3,104.9z"/>
		<path fill="#DFDFD5" d="M307.1,92.9c-2-2-4.5-2.9-7.1-2.9s-5.1,1-7.1,2.9c-3.9,3.9-3.9,10.2,0,14.1c2,2,4.5,2.9,7.1,2.9
			s5.1-1,7.1-2.9C311,103.2,311,96.8,307.1,92.9z M294.3,94.3L294.3,94.3C294.3,94.3,294.3,94.3,294.3,94.3
			C294.3,94.3,294.3,94.3,294.3,94.3z M294.3,105.7c-2.9-2.9-3.1-7.4-0.7-10.6l11.2,11.2c-1.4,1.1-3.1,1.7-4.9,1.7
			C297.9,108,295.9,107.2,294.3,105.7z M305.7,105.7L305.7,105.7C305.7,105.7,305.7,105.7,305.7,105.7
			C305.7,105.7,305.7,105.7,305.7,105.7z M306.3,104.9l-11.2-11.2c1.4-1.1,3.1-1.7,4.9-1.7c2.1,0,4.1,0.8,5.7,2.3
			C308.5,97.2,308.8,101.8,306.3,104.9z"/>
		<path fill="#DFDFD5" d="M27.1,212.9c-2-2-4.5-2.9-7.1-2.9s-5.1,1-7.1,2.9c-3.9,3.9-3.9,10.2,0,14.1c2,2,4.5,2.9,7.1,2.9
			s5.1-1,7.1-2.9C31,223.2,31,216.8,27.1,212.9z M14.3,214.3L14.3,214.3C14.3,214.3,14.3,214.3,14.3,214.3
			C14.3,214.3,14.3,214.3,14.3,214.3z M14.3,225.7c-2.9-2.9-3.1-7.4-0.7-10.6l11.2,11.2c-1.4,1.1-3.1,1.7-4.9,1.7
			C17.9,228,15.9,227.2,14.3,225.7z M25.7,225.7L25.7,225.7C25.7,225.7,25.7,225.7,25.7,225.7C25.7,225.7,25.7,225.7,25.7,225.7z
			 M26.3,224.9l-11.2-11.2c1.4-1.1,3.1-1.7,4.9-1.7c2.1,0,4.1,0.8,5.7,2.3C28.5,217.2,28.8,221.8,26.3,224.9z"/>
		<path fill="#DFDFD5" d="M67.1,212.9c-2-2-4.5-2.9-7.1-2.9s-5.1,1-7.1,2.9c-3.9,3.9-3.9,10.2,0,14.1c2,2,4.5,2.9,7.1,2.9
			s5.1-1,7.1-2.9C71,223.2,71,216.8,67.1,212.9z M54.3,214.3L54.3,214.3C54.3,214.3,54.3,214.3,54.3,214.3
			C54.3,214.3,54.3,214.3,54.3,214.3z M54.3,225.7c-2.9-2.9-3.1-7.4-0.7-10.6l11.2,11.2c-1.4,1.1-3.1,1.7-4.9,1.7
			C57.9,228,55.9,227.2,54.3,225.7z M65.7,225.7L65.7,225.7C65.7,225.7,65.7,225.7,65.7,225.7C65.7,225.7,65.7,225.7,65.7,225.7z
			 M66.3,224.9l-11.2-11.2c1.4-1.1,3.1-1.7,4.9-1.7c2.1,0,4.1,0.8,5.7,2.3C68.5,217.2,68.8,221.8,66.3,224.9z"/>
		<path fill="#DFDFD5" d="M107.1,212.9c-2-2-4.5-2.9-7.1-2.9s-5.1,1-7.1,2.9c-3.9,3.9-3.9,10.2,0,14.1c2,2,4.5,2.9,7.1,2.9
			s5.1-1,7.1-2.9C111,223.2,111,216.8,107.1,212.9z M94.3,214.3L94.3,214.3C94.3,214.3,94.3,214.3,94.3,214.3
			C94.3,214.3,94.3,214.3,94.3,214.3z M94.3,225.7c-2.9-2.9-3.1-7.4-0.7-10.6l11.2,11.2c-1.4,1.1-3.1,1.7-4.9,1.7
			C97.9,228,95.9,227.2,94.3,225.7z M105.7,225.7L105.7,225.7C105.7,225.7,105.7,225.7,105.7,225.7
			C105.7,225.7,105.7,225.7,105.7,225.7z M106.3,224.9l-11.2-11.2c1.4-1.1,3.1-1.7,4.9-1.7c2.1,0,4.1,0.8,5.7,2.3
			C108.5,217.2,108.8,221.8,106.3,224.9z"/>
		<path fill="#DFDFD5" d="M27.1,172.9c-2-2-4.5-2.9-7.1-2.9s-5.1,1-7.1,2.9c-3.9,3.9-3.9,10.2,0,14.1c2,2,4.5,2.9,7.1,2.9
			s5.1-1,7.1-2.9C31,183.2,31,176.8,27.1,172.9z M14.3,174.3L14.3,174.3C14.3,174.3,14.3,174.3,14.3,174.3
			C14.3,174.3,14.3,174.3,14.3,174.3z M14.3,185.7c-2.9-2.9-3.1-7.4-0.7-10.6l11.2,11.2c-1.4,1.1-3.1,1.7-4.9,1.7
			C17.9,188,15.9,187.2,14.3,185.7z M25.7,185.7L25.7,185.7C25.7,185.7,25.7,185.7,25.7,185.7C25.7,185.7,25.7,185.7,25.7,185.7z
			 M26.3,184.9l-11.2-11.2c1.4-1.1,3.1-1.7,4.9-1.7c2.1,0,4.1,0.8,5.7,2.3C28.5,177.2,28.8,181.8,26.3,184.9z"/>
		<path fill="#DFDFD5" d="M67.1,172.9c-2-2-4.5-2.9-7.1-2.9s-5.1,1-7.1,2.9c-3.9,3.9-3.9,10.2,0,14.1c2,2,4.5,2.9,7.1,2.9
			s5.1-1,7.1-2.9C71,183.2,71,176.8,67.1,172.9z M54.3,174.3L54.3,174.3C54.3,174.3,54.3,174.3,54.3,174.3
			C54.3,174.3,54.3,174.3,54.3,174.3z M54.3,185.7c-2.9-2.9-3.1-7.4-0.7-10.6l11.2,11.2c-1.4,1.1-3.1,1.7-4.9,1.7
			C57.9,188,55.9,187.2,54.3,185.7z M65.7,185.7L65.7,185.7C65.7,185.7,65.7,185.7,65.7,185.7C65.7,185.7,65.7,185.7,65.7,185.7z
			 M66.3,184.9l-11.2-11.2c1.4-1.1,3.1-1.7,4.9-1.7c2.1,0,4.1,0.8,5.7,2.3C68.5,177.2,68.8,181.8,66.3,184.9z"/>
		<path fill="#DFDFD5" d="M107.1,172.9c-2-2-4.5-2.9-7.1-2.9s-5.1,1-7.1,2.9c-3.9,3.9-3.9,10.2,0,14.1c2,2,4.5,2.9,7.1,2.9
			s5.1-1,7.1-2.9C111,183.2,111,176.8,107.1,172.9z M94.3,174.3L94.3,174.3C94.3,174.3,94.3,174.3,94.3,174.3
			C94.3,174.3,94.3,174.3,94.3,174.3z M94.3,185.7c-2.9-2.9-3.1-7.4-0.7-10.6l11.2,11.2c-1.4,1.1-3.1,1.7-4.9,1.7
			C97.9,188,95.9,187.2,94.3,185.7z M105.7,185.7L105.7,185.7C105.7,185.7,105.7,185.7,105.7,185.7
			C105.7,185.7,105.7,185.7,105.7,185.7z M106.3,184.9l-11.2-11.2c1.4-1.1,3.1-1.7,4.9-1.7c2.1,0,4.1,0.8,5.7,2.3
			C108.5,177.2,108.8,181.8,106.3,184.9z"/>
		<path fill="#DFDFD5" d="M27.1,132.9c-2-2-4.5-2.9-7.1-2.9s-5.1,1-7.1,2.9c-3.9,3.9-3.9,10.2,0,14.1c2,2,4.5,2.9,7.1,2.9
			s5.1-1,7.1-2.9C31,143.2,31,136.8,27.1,132.9z M14.3,134.3L14.3,134.3C14.3,134.3,14.3,134.3,14.3,134.3
			C14.3,134.3,14.3,134.3,14.3,134.3z M14.3,145.7c-2.9-2.9-3.1-7.4-0.7-10.6l11.2,11.2c-1.4,1.1-3.1,1.7-4.9,1.7
			C17.9,148,15.9,147.2,14.3,145.7z M25.7,145.7L25.7,145.7C25.7,145.7,25.7,145.7,25.7,145.7C25.7,145.7,25.7,145.7,25.7,145.7z
			 M26.3,144.9l-11.2-11.2c1.4-1.1,3.1-1.7,4.9-1.7c2.1,0,4.1,0.8,5.7,2.3C28.5,137.2,28.8,141.8,26.3,144.9z"/>
		<path fill="#DFDFD5" d="M67.1,132.9c-2-2-4.5-2.9-7.1-2.9s-5.1,1-7.1,2.9c-3.9,3.9-3.9,10.2,0,14.1c2,2,4.5,2.9,7.1,2.9
			s5.1-1,7.1-2.9C71,143.2,71,136.8,67.1,132.9z M54.3,134.3L54.3,134.3C54.3,134.3,54.3,134.3,54.3,134.3
			C54.3,134.3,54.3,134.3,54.3,134.3z M54.3,145.7c-2.9-2.9-3.1-7.4-0.7-10.6l11.2,11.2c-1.4,1.1-3.1,1.7-4.9,1.7
			C57.9,148,55.9,147.2,54.3,145.7z M65.7,145.7L65.7,145.7C65.7,145.7,65.7,145.7,65.7,145.7C65.7,145.7,65.7,145.7,65.7,145.7z
			 M66.3,144.9l-11.2-11.2c1.4-1.1,3.1-1.7,4.9-1.7c2.1,0,4.1,0.8,5.7,2.3C68.5,137.2,68.8,141.8,66.3,144.9z"/>
		<path fill="#DFDFD5" d="M107.1,132.9c-2-2-4.5-2.9-7.1-2.9s-5.1,1-7.1,2.9c-3.9,3.9-3.9,10.2,0,14.1c2,2,4.5,2.9,7.1,2.9
			s5.1-1,7.1-2.9C111,143.2,111,136.8,107.1,132.9z M94.3,134.3L94.3,134.3C94.3,134.3,94.3,134.3,94.3,134.3
			C94.3,134.3,94.3,134.3,94.3,134.3z M94.3,145.7c-2.9-2.9-3.1-7.4-0.7-10.6l11.2,11.2c-1.4,1.1-3.1,1.7-4.9,1.7
			C97.9,148,95.9,147.2,94.3,145.7z M105.7,145.7L105.7,145.7C105.7,145.7,105.7,145.7,105.7,145.7
			C105.7,145.7,105.7,145.7,105.7,145.7z M106.3,144.9l-11.2-11.2c1.4-1.1,3.1-1.7,4.9-1.7c2.1,0,4.1,0.8,5.7,2.3
			C108.5,137.2,108.8,141.8,106.3,144.9z"/>
		<path fill="#DFDFD5" d="M147.1,212.9c-2-2-4.5-2.9-7.1-2.9s-5.1,1-7.1,2.9c-3.9,3.9-3.9,10.2,0,14.1c2,2,4.5,2.9,7.1,2.9
			s5.1-1,7.1-2.9C151,223.2,151,216.8,147.1,212.9z M134.3,214.3L134.3,214.3C134.3,214.3,134.3,214.3,134.3,214.3
			C134.3,214.3,134.3,214.3,134.3,214.3z M134.3,225.7c-2.9-2.9-3.1-7.4-0.7-10.6l11.2,11.2c-1.4,1.1-3.1,1.7-4.9,1.7
			C137.9,228,135.9,227.2,134.3,225.7z M145.7,225.7L145.7,225.7C145.7,225.7,145.7,225.7,145.7,225.7
			C145.7,225.7,145.7,225.7,145.7,225.7z M146.3,224.9l-11.2-11.2c1.4-1.1,3.1-1.7,4.9-1.7c2.1,0,4.1,0.8,5.7,2.3
			C148.5,217.2,148.8,221.8,146.3,224.9z"/>
		<path fill="#DFDFD5" d="M187.1,212.9c-2-2-4.5-2.9-7.1-2.9s-5.1,1-7.1,2.9c-3.9,3.9-3.9,10.2,0,14.1c2,2,4.5,2.9,7.1,2.9
			s5.1-1,7.1-2.9C191,223.2,191,216.8,187.1,212.9z M174.3,214.3L174.3,214.3C174.3,214.3,174.3,214.3,174.3,214.3
			C174.3,214.3,174.3,214.3,174.3,214.3z M174.3,225.7c-2.9-2.9-3.1-7.4-0.7-10.6l11.2,11.2c-1.4,1.1-3.1,1.7-4.9,1.7
			C177.9,228,175.9,227.2,174.3,225.7z M185.7,225.7L185.7,225.7C185.7,225.7,185.7,225.7,185.7,225.7
			C185.7,225.7,185.7,225.7,185.7,225.7z M186.3,224.9l-11.2-11.2c1.4-1.1,3.1-1.7,4.9-1.7c2.1,0,4.1,0.8,5.7,2.3
			C188.5,217.2,188.8,221.8,186.3,224.9z"/>
		<path fill="#DFDFD5" d="M227.1,212.9c-2-2-4.5-2.9-7.1-2.9s-5.1,1-7.1,2.9c-3.9,3.9-3.9,10.2,0,14.1c2,2,4.5,2.9,7.1,2.9
			s5.1-1,7.1-2.9C231,223.2,231,216.8,227.1,212.9z M214.3,214.3L214.3,214.3C214.3,214.3,214.3,214.3,214.3,214.3
			C214.3,214.3,214.3,214.3,214.3,214.3z M214.3,225.7c-2.9-2.9-3.1-7.4-0.7-10.6l11.2,11.2c-1.4,1.1-3.1,1.7-4.9,1.7
			C217.9,228,215.9,227.2,214.3,225.7z M225.7,225.7L225.7,225.7C225.7,225.7,225.7,225.7,225.7,225.7
			C225.7,225.7,225.7,225.7,225.7,225.7z M226.3,224.9l-11.2-11.2c1.4-1.1,3.1-1.7,4.9-1.7c2.1,0,4.1,0.8,5.7,2.3
			C228.5,217.2,228.8,221.8,226.3,224.9z"/>
		<path fill="#DFDFD5" d="M267.1,212.9c-2-2-4.5-2.9-7.1-2.9s-5.1,1-7.1,2.9c-3.9,3.9-3.9,10.2,0,14.1c2,2,4.5,2.9,7.1,2.9
			s5.1-1,7.1-2.9C271,223.2,271,216.8,267.1,212.9z M254.3,214.3L254.3,214.3C254.3,214.3,254.3,214.3,254.3,214.3
			C254.3,214.3,254.3,214.3,254.3,214.3z M254.3,225.7c-2.9-2.9-3.1-7.4-0.7-10.6l11.2,11.2c-1.4,1.1-3.1,1.7-4.9,1.7
			C257.9,228,255.9,227.2,254.3,225.7z M265.7,225.7L265.7,225.7C265.7,225.7,265.7,225.7,265.7,225.7
			C265.7,225.7,265.7,225.7,265.7,225.7z M266.3,224.9l-11.2-11.2c1.4-1.1,3.1-1.7,4.9-1.7c2.1,0,4.1,0.8,5.7,2.3
			C268.5,217.2,268.8,221.8,266.3,224.9z"/>
		<path fill="#DFDFD5" d="M307.1,212.9c-2-2-4.5-2.9-7.1-2.9s-5.1,1-7.1,2.9c-3.9,3.9-3.9,10.2,0,14.1c2,2,4.5,2.9,7.1,2.9
			s5.1-1,7.1-2.9C311,223.2,311,216.8,307.1,212.9z M294.3,214.3L294.3,214.3C294.3,214.3,294.3,214.3,294.3,214.3
			C294.3,214.3,294.3,214.3,294.3,214.3z M294.3,225.7c-2.9-2.9-3.1-7.4-0.7-10.6l11.2,11.2c-1.4,1.1-3.1,1.7-4.9,1.7
			C297.9,228,295.9,227.2,294.3,225.7z M305.7,225.7L305.7,225.7C305.7,225.7,305.7,225.7,305.7,225.7
			C305.7,225.7,305.7,225.7,305.7,225.7z M306.3,224.9l-11.2-11.2c1.4-1.1,3.1-1.7,4.9-1.7c2.1,0,4.1,0.8,5.7,2.3
			C308.5,217.2,308.8,221.8,306.3,224.9z"/>
		<path fill="#DFDFD5" d="M227.1,172.9c-2-2-4.5-2.9-7.1-2.9s-5.1,1-7.1,2.9c-3.9,3.9-3.9,10.2,0,14.1c2,2,4.5,2.9,7.1,2.9
			s5.1-1,7.1-2.9C231,183.2,231,176.8,227.1,172.9z M214.3,174.3L214.3,174.3C214.3,174.3,214.3,174.3,214.3,174.3
			C214.3,174.3,214.3,174.3,214.3,174.3z M214.3,185.7c-2.9-2.9-3.1-7.4-0.7-10.6l11.2,11.2c-1.4,1.1-3.1,1.7-4.9,1.7
			C217.9,188,215.9,187.2,214.3,185.7z M225.7,185.7L225.7,185.7C225.7,185.7,225.7,185.7,225.7,185.7
			C225.7,185.7,225.7,185.7,225.7,185.7z M226.3,184.9l-11.2-11.2c1.4-1.1,3.1-1.7,4.9-1.7c2.1,0,4.1,0.8,5.7,2.3
			C228.5,177.2,228.8,181.8,226.3,184.9z"/>
		<path fill="#DFDFD5" d="M267.1,172.9c-2-2-4.5-2.9-7.1-2.9s-5.1,1-7.1,2.9c-3.9,3.9-3.9,10.2,0,14.1c2,2,4.5,2.9,7.1,2.9
			s5.1-1,7.1-2.9C271,183.2,271,176.8,267.1,172.9z M254.3,174.3L254.3,174.3C254.3,174.3,254.3,174.3,254.3,174.3
			C254.3,174.3,254.3,174.3,254.3,174.3z M254.3,185.7c-2.9-2.9-3.1-7.4-0.7-10.6l11.2,11.2c-1.4,1.1-3.1,1.7-4.9,1.7
			C257.9,188,255.9,187.2,254.3,185.7z M265.7,185.7L265.7,185.7C265.7,185.7,265.7,185.7,265.7,185.7
			C265.7,185.7,265.7,185.7,265.7,185.7z M266.3,184.9l-11.2-11.2c1.4-1.1,3.1-1.7,4.9-1.7c2.1,0,4.1,0.8,5.7,2.3
			C268.5,177.2,268.8,181.8,266.3,184.9z"/>
		<path fill="#DFDFD5" d="M307.1,172.9c-2-2-4.5-2.9-7.1-2.9s-5.1,1-7.1,2.9c-3.9,3.9-3.9,10.2,0,14.1c2,2,4.5,2.9,7.1,2.9
			s5.1-1,7.1-2.9C311,183.2,311,176.8,307.1,172.9z M294.3,174.3L294.3,174.3C294.3,174.3,294.3,174.3,294.3,174.3
			C294.3,174.3,294.3,174.3,294.3,174.3z M294.3,185.7c-2.9-2.9-3.1-7.4-0.7-10.6l11.2,11.2c-1.4,1.1-3.1,1.7-4.9,1.7
			C297.9,188,295.9,187.2,294.3,185.7z M305.7,185.7L305.7,185.7C305.7,185.7,305.7,185.7,305.7,185.7
			C305.7,185.7,305.7,185.7,305.7,185.7z M306.3,184.9l-11.2-11.2c1.4-1.1,3.1-1.7,4.9-1.7c2.1,0,4.1,0.8,5.7,2.3
			C308.5,177.2,308.8,181.8,306.3,184.9z"/>
		<path fill="#DFDFD5" d="M227.1,132.9c-2-2-4.5-2.9-7.1-2.9s-5.1,1-7.1,2.9c-3.9,3.9-3.9,10.2,0,14.1c2,2,4.5,2.9,7.1,2.9
			s5.1-1,7.1-2.9C231,143.2,231,136.8,227.1,132.9z M214.3,134.3L214.3,134.3C214.3,134.3,214.3,134.3,214.3,134.3
			C214.3,134.3,214.3,134.3,214.3,134.3z M214.3,145.7c-2.9-2.9-3.1-7.4-0.7-10.6l11.2,11.2c-1.4,1.1-3.1,1.7-4.9,1.7
			C217.9,148,215.9,147.2,214.3,145.7z M225.7,145.7L225.7,145.7C225.7,145.7,225.7,145.7,225.7,145.7
			C225.7,145.7,225.7,145.7,225.7,145.7z M226.3,144.9l-11.2-11.2c1.4-1.1,3.1-1.7,4.9-1.7c2.1,0,4.1,0.8,5.7,2.3
			C228.5,137.2,228.8,141.8,226.3,144.9z"/>
		<path fill="#DFDFD5" d="M267.1,132.9c-2-2-4.5-2.9-7.1-2.9s-5.1,1-7.1,2.9c-3.9,3.9-3.9,10.2,0,14.1c2,2,4.5,2.9,7.1,2.9
			s5.1-1,7.1-2.9C271,143.2,271,136.8,267.1,132.9z M254.3,134.3L254.3,134.3C254.3,134.3,254.3,134.3,254.3,134.3
			C254.3,134.3,254.3,134.3,254.3,134.3z M254.3,145.7c-2.9-2.9-3.1-7.4-0.7-10.6l11.2,11.2c-1.4,1.1-3.1,1.7-4.9,1.7
			C257.9,148,255.9,147.2,254.3,145.7z M265.7,145.7L265.7,145.7C265.7,145.7,265.7,145.7,265.7,145.7
			C265.7,145.7,265.7,145.7,265.7,145.7z M266.3,144.9l-11.2-11.2c1.4-1.1,3.1-1.7,4.9-1.7c2.1,0,4.1,0.8,5.7,2.3
			C268.5,137.2,268.8,141.8,266.3,144.9z"/>
		<path fill="#DFDFD5" d="M307.1,132.9c-2-2-4.5-2.9-7.1-2.9s-5.1,1-7.1,2.9c-3.9,3.9-3.9,10.2,0,14.1c2,2,4.5,2.9,7.1,2.9
			s5.1-1,7.1-2.9C311,143.2,311,136.8,307.1,132.9z M294.3,134.3L294.3,134.3C294.3,134.3,294.3,134.3,294.3,134.3
			C294.3,134.3,294.3,134.3,294.3,134.3z M294.3,145.7c-2.9-2.9-3.1-7.4-0.7-10.6l11.2,11.2c-1.4,1.1-3.1,1.7-4.9,1.7
			C297.9,148,295.9,147.2,294.3,145.7z M305.7,145.7L305.7,145.7C305.7,145.7,305.7,145.7,305.7,145.7
			C305.7,145.7,305.7,145.7,305.7,145.7z M306.3,144.9l-11.2-11.2c1.4-1.1,3.1-1.7,4.9-1.7c2.1,0,4.1,0.8,5.7,2.3
			C308.5,137.2,308.8,141.8,306.3,144.9z"/>
	</g>
</g>
<g>
	<rect x="1" y="1" fill="#FF1472" width="78" height="78"/>
	<path fill="#DFDFD5" d="M54.1,25.9C50.2,22,45.1,20,40,20s-10.2,2-14.1,5.9c-7.8,7.8-7.8,20.5,0,28.3C29.8,58,34.9,60,40,60
		s10.2-2,14.1-5.9C62,46.3,62,33.7,54.1,25.9z M28.7,28.7L28.7,28.7C28.7,28.7,28.7,28.7,28.7,28.7C28.7,28.7,28.7,28.7,28.7,28.7z
		 M28.7,51.3c-5.8-5.8-6.2-14.8-1.3-21.1l22.4,22.4C47,54.8,43.6,56,40,56C35.7,56,31.7,54.3,28.7,51.3z M51.3,51.3L51.3,51.3
		C51.3,51.3,51.3,51.3,51.3,51.3C51.3,51.3,51.3,51.3,51.3,51.3z M52.6,49.8L30.2,27.4C33,25.2,36.4,24,40,24
		c4.3,0,8.3,1.7,11.3,4.7C57.1,34.4,57.5,43.5,52.6,49.8z"/>
</g>
</svg>
